<svg width="29" height="29" viewBox="0 0 29 29" fill="none" xmlns="http://www.w3.org/2000/svg">
<g clip-path="url(#clip0_5_94)">
<path d="M20.8438 28.0938H2.71875C1.72187 28.0938 0.90625 27.2781 0.90625 26.2812V2.71875C0.90625 1.72187 1.72187 0.90625 2.71875 0.90625H20.8438C21.8406 0.90625 22.6562 1.72187 22.6562 2.71875V26.2812C22.6562 27.2781 21.8406 28.0938 20.8438 28.0938Z" fill="url(#paint0_linear_5_94)"/>
<path d="M9.0625 3.625H2.71875V4.53125H9.0625V3.625Z" fill="#BDBDBD"/>
<path d="M19.9375 6.34375H2.71875V7.25H19.9375V6.34375Z" fill="#BDBDBD"/>
<path d="M19.9375 9.0625H2.71875V9.96875H19.9375V9.0625Z" fill="#BDBDBD"/>
<path d="M19.9375 11.7812H2.71875V12.6875H19.9375V11.7812Z" fill="#BDBDBD"/>
<path d="M19.9375 14.5H2.71875V15.4062H19.9375V14.5Z" fill="#BDBDBD"/>
<path d="M15.4062 17.2188H2.71875V18.125H15.4062V17.2188Z" fill="#BDBDBD"/>
<path d="M13.5938 19.9375H2.71875V20.8438H13.5938V19.9375Z" fill="#BDBDBD"/>
<path d="M7.25 22.6562H2.71875V23.5625H7.25V22.6562Z" fill="#BDBDBD"/>
<g opacity="0.2">
<path d="M20.8438 1.58594C21.4691 1.58594 21.9766 2.09344 21.9766 2.71875V26.2812C21.9766 26.9066 21.4691 27.4141 20.8438 27.4141H2.71875C2.09344 27.4141 1.58594 26.9066 1.58594 26.2812V2.71875C1.58594 2.09344 2.09344 1.58594 2.71875 1.58594H20.8438ZM20.8438 0.90625H2.71875C1.72187 0.90625 0.90625 1.72187 0.90625 2.71875V26.2812C0.90625 27.2781 1.72187 28.0938 2.71875 28.0938H20.8438C21.8406 28.0938 22.6562 27.2781 22.6562 26.2812V2.71875C22.6562 1.72187 21.8406 0.90625 20.8438 0.90625Z" fill="#424242"/>
</g>
<path d="M8.19024 22.6902L9.21657 19.9511L9.92344 18.0661C10.082 17.579 10.3539 17.1372 10.7164 16.7747L12.3477 15.1434L16.5776 19.3734L14.9463 21.0046C14.5838 21.3671 14.142 21.639 13.6549 21.7976L11.7699 22.5044L9.03079 23.5308C8.51196 23.6984 8.02032 23.2068 8.19024 22.6902Z" fill="url(#paint1_linear_5_94)"/>
<g opacity="0.2">
<path d="M12.3454 16.1041L15.6124 19.3711L14.4615 20.522C14.176 20.8075 13.8226 21.025 13.4397 21.1496L13.4261 21.1541L13.4125 21.1587L11.5275 21.8655L8.84727 22.8692L9.85095 20.189L10.5578 18.304L10.5624 18.2904L10.5669 18.2768C10.6915 17.8939 10.909 17.5405 11.1945 17.255L12.3454 16.1041ZM12.3454 15.1434L10.7141 16.7747C10.3516 17.1372 10.0798 17.579 9.92118 18.0661L9.2143 19.9511L8.18798 22.6902C8.04298 23.1366 8.38735 23.5625 8.81555 23.5625C8.88352 23.5625 8.95376 23.5512 9.02626 23.5285L11.7654 22.5022L13.6504 21.7953C14.1375 21.6367 14.5793 21.3648 14.9418 21.0023L16.5731 19.3711L12.3454 15.1434Z" fill="#424242"/>
</g>
<path d="M8.19023 22.6902L9.21656 19.9511C9.75125 20.2162 10.2565 20.5719 10.7005 21.0182C11.1469 21.4645 11.5003 21.9675 11.7677 22.5022L9.02851 23.5285C8.51195 23.6984 8.02031 23.2068 8.19023 22.6902Z" fill="url(#paint2_linear_5_94)"/>
<g opacity="0.2">
<path d="M9.56773 20.948C9.80109 21.1111 10.0186 21.2946 10.2202 21.4963C10.4219 21.6979 10.6054 21.9154 10.7685 22.1488L8.84727 22.8692L9.56773 20.948ZM9.21656 19.9511L8.19023 22.6902C8.04523 23.1366 8.38961 23.5625 8.81781 23.5625C8.88578 23.5625 8.95602 23.5512 9.02852 23.5285L11.7677 22.5022C11.5026 21.9675 11.1469 21.4623 10.7005 21.0182C10.2565 20.5719 9.75125 20.2162 9.21656 19.9511Z" fill="#424242"/>
</g>
<path d="M20.1844 7.30438L24.4144 11.5343L25.8236 10.1228L21.5959 5.89516L20.1844 7.30438Z" fill="url(#paint3_linear_5_94)"/>
<path d="M20.655 6.83465L24.8844 11.064L25.3537 10.5946L21.1244 6.36526L20.655 6.83465Z" fill="#9E9E9E"/>
<path d="M21.5959 5.89515L25.8259 10.1251L27.7063 8.24461C28.2252 7.72578 28.2252 6.88297 27.7063 6.36414L25.3569 4.01469C24.838 3.49586 23.9952 3.49586 23.4764 4.01469L21.5959 5.89515Z" fill="url(#paint4_linear_5_94)"/>
<path d="M23.1615 10.2791L21.4373 8.55499L12.7373 17.255L12.7215 17.5948C12.6898 18.3266 13.3898 19.0267 14.1194 18.9927L14.4592 18.9769L23.1615 10.2791Z" fill="url(#paint5_linear_5_94)"/>
<path d="M24.4144 11.5343L15.327 20.6217C14.8172 20.4087 14.423 19.8741 14.4456 19.3212L14.4615 18.9814L23.1615 10.2814L24.4144 11.5343Z" fill="url(#paint6_linear_5_94)"/>
<path d="M21.4396 8.55727L12.7396 17.2573L12.3998 17.2731C11.847 17.2981 11.3123 16.9016 11.0993 16.3918L20.1867 7.30438L21.4396 8.55727Z" fill="url(#paint7_linear_5_94)"/>
<g opacity="0.2">
<path d="M24.4144 4.30469C24.5888 4.30469 24.752 4.37266 24.8743 4.495L27.2237 6.84445C27.3461 6.9668 27.4141 7.12992 27.4141 7.30437C27.4141 7.47883 27.3461 7.64195 27.2237 7.7643L25.3433 9.64476L23.9341 11.054L15.259 19.7291C15.1729 19.6112 15.1208 19.4753 15.1253 19.3507L15.1412 19.0109L15.1729 18.27L14.432 18.3017L14.0922 18.3176H14.0741C13.9177 18.3176 13.741 18.2315 13.6051 18.0887C13.4714 17.9505 13.3966 17.7761 13.4034 17.6266L13.4193 17.2867L13.451 16.5459L12.7102 16.5776L12.3703 16.5934H12.3522C12.2321 16.5934 12.103 16.5436 11.992 16.4598L20.667 7.78469L22.0762 6.37547L23.9567 4.495C24.0791 4.37266 24.2422 4.30469 24.4144 4.30469ZM24.4144 3.625C24.0745 3.625 23.7347 3.75414 23.4741 4.01469L21.5937 5.89516L20.1845 7.30437L11.097 16.3918C11.3055 16.888 11.8152 17.2731 12.3499 17.2731C12.3658 17.2731 12.3816 17.2731 12.3975 17.2731L12.7373 17.2573L12.7237 17.5971C12.692 18.313 13.3604 18.9973 14.0741 18.9973C14.0899 18.9973 14.1058 18.9973 14.1216 18.9973L14.4615 18.9814L14.4456 19.3212C14.4207 19.8741 14.8172 20.4087 15.327 20.6217L24.4144 11.5343L25.8236 10.1251L27.7041 8.24461C28.2229 7.72578 28.2229 6.88297 27.7041 6.36414L25.3546 4.01469C25.0963 3.75414 24.7542 3.625 24.4144 3.625Z" fill="#424242"/>
</g>
</g>
<defs>
<linearGradient id="paint0_linear_5_94" x1="11.7812" y1="0.0755133" x2="11.7812" y2="27.7764" gradientUnits="userSpaceOnUse">
<stop stop-color="#F5F5F5"/>
<stop offset="1" stop-color="#E0E0E0"/>
</linearGradient>
<linearGradient id="paint1_linear_5_94" x1="12.366" y1="6.58571" x2="12.366" y2="23.0462" gradientUnits="userSpaceOnUse">
<stop offset="0.00685402" stop-color="#FFECB3"/>
<stop offset="1" stop-color="#FFE082"/>
</linearGradient>
<linearGradient id="paint2_linear_5_94" x1="9.96215" y1="16.2798" x2="9.96215" y2="23.341" gradientUnits="userSpaceOnUse">
<stop stop-color="#757575"/>
<stop offset="1" stop-color="#424242"/>
</linearGradient>
<linearGradient id="paint3_linear_5_94" x1="23.0051" y1="4.9957" x2="23.0051" y2="12.1421" gradientUnits="userSpaceOnUse">
<stop stop-color="#E0E0E0"/>
<stop offset="1" stop-color="#9E9E9E"/>
</linearGradient>
<linearGradient id="paint4_linear_5_94" x1="24.8445" y1="2.65581" x2="24.8445" y2="9.51787" gradientUnits="userSpaceOnUse">
<stop stop-color="#E57373"/>
<stop offset="1" stop-color="#F44336"/>
</linearGradient>
<linearGradient id="paint5_linear_5_94" x1="17.942" y1="5.64643" x2="17.942" y2="18.0788" gradientUnits="userSpaceOnUse">
<stop stop-color="#FFC107"/>
<stop offset="1" stop-color="#FFA000"/>
</linearGradient>
<linearGradient id="paint6_linear_5_94" x1="25.0207" y1="9.67441" x2="16.6205" y2="18.0746" gradientUnits="userSpaceOnUse">
<stop stop-color="#FFCA28"/>
<stop offset="1" stop-color="#FFB300"/>
</linearGradient>
<linearGradient id="paint7_linear_5_94" x1="22.0445" y1="6.69823" x2="13.6443" y2="15.0984" gradientUnits="userSpaceOnUse">
<stop stop-color="#FFCA28"/>
<stop offset="1" stop-color="#FFB300"/>
</linearGradient>
<clipPath id="clip0_5_94">
<rect width="29" height="29" fill="white"/>
</clipPath>
</defs>
</svg>
