<svg width="73" height="97" viewBox="0 0 73 97" fill="none" xmlns="http://www.w3.org/2000/svg">
<path d="M8.58163 46.9882C9.10172 43.0433 10.7198 39.4224 13.1107 36.4493C15.8267 33.0659 19.5613 30.5176 23.8303 29.265L24.6827 29.0131L25.3183 29.6321C26.7847 31.0575 28.5328 32.2093 30.4686 32.9867C32.3251 33.7354 34.3693 34.1529 36.5074 34.1529C38.6456 34.1529 40.6826 33.7354 42.539 32.9867C44.4749 32.2093 46.2229 31.0575 47.6893 29.6321L48.325 29.0131L49.1773 29.265C53.4536 30.5176 57.1809 33.0731 59.8969 36.4493C62.2879 39.4224 63.9059 43.0433 64.426 46.9882H66.7519C68.4639 46.9882 70.0314 47.6865 71.1582 48.8167C72.2923 49.9469 72.993 51.5018 72.993 53.2079V84.7741C72.993 86.8834 72.1262 88.8054 70.732 90.1948C69.3379 91.5841 67.4093 92.448 65.2928 92.448H59.2829V93.9597H66.7664V96.9903H6.08233V93.9597H13.7103V92.448H7.69315C5.57669 92.448 3.64803 91.5841 2.25391 90.1948C0.859785 88.8054 -0.00702697 86.8834 -0.00702697 84.7741V53.2079C-0.00702697 51.5018 0.693646 49.9397 1.82772 48.8167C2.9618 47.6865 4.52207 46.9882 6.23402 46.9882H8.55996H8.58163ZM33.4591 68.2028H39.5413V71.2334H33.4591V68.2028ZM56.2418 92.4551H16.7586V93.9669H56.2418V92.4551ZM61.356 46.9882C60.8576 43.756 59.4996 40.7901 57.5276 38.3426C55.3606 35.6503 52.4568 33.5698 49.1268 32.418C47.5232 33.829 45.6812 34.9808 43.6731 35.787C41.4555 36.6869 39.0284 37.1764 36.5002 37.1764C33.9648 37.1764 31.5449 36.6797 29.3273 35.787C27.3192 34.9736 25.4772 33.829 23.8736 32.418C20.5436 33.5626 17.6398 35.6503 15.4728 38.3426C13.5008 40.7901 12.1428 43.756 11.6444 46.9882H61.3633H61.356ZM66.7447 50.0188H6.25569C5.36721 50.0188 4.56541 50.3788 3.98753 50.9547L3.98031 50.9619C3.40243 51.5378 3.04126 52.3368 3.04126 53.2223V84.7885C3.04126 86.0627 3.56857 87.2217 4.40649 88.0639C5.25163 88.9062 6.4146 89.4245 7.69315 89.4245H65.2928C66.5713 89.4245 67.7343 88.899 68.5795 88.0639C69.4246 87.2217 69.9447 86.0627 69.9447 84.7885V53.2223C69.9447 52.3368 69.5835 51.5378 69.0056 50.9619L68.9984 50.9547C68.4205 50.3788 67.6187 50.0188 66.7303 50.0188H66.7447ZM36.5002 0.00231934C40.5887 0.00231934 44.2943 1.65802 46.9742 4.32873C49.6541 6.99945 51.3155 10.6924 51.3155 14.7668C51.3155 18.8413 49.6541 22.527 46.9742 25.1977L46.967 25.2049C44.2871 27.8757 40.5814 29.5314 36.5002 29.5314C32.419 29.5314 28.7133 27.8757 26.0334 25.2049L26.0262 25.1977C23.3463 22.527 21.6849 18.8341 21.6849 14.7668C21.6849 10.6996 23.3463 7.00665 26.0262 4.33593L26.0334 4.32873C28.7133 1.65802 32.419 0.00231934 36.5002 0.00231934ZM44.8288 6.47395C42.6979 4.35033 39.758 3.04017 36.5002 3.04017C33.2424 3.04017 30.3025 4.35033 28.1716 6.46675L28.1644 6.47395C26.0407 8.59036 24.726 11.5274 24.726 14.774C24.726 18.0207 26.0407 20.9505 28.1644 23.0741L28.1716 23.0813C30.2953 25.1977 33.2424 26.5079 36.5002 26.5079C39.7507 26.5079 42.6979 25.1905 44.8288 23.0741C46.9525 20.9505 48.2744 18.0135 48.2744 14.774C48.2744 11.5346 46.9525 8.59756 44.8288 6.47395Z" fill="#27AFB7"/>
</svg>
