<svg width="29" height="29" viewBox="0 0 29 29" fill="none" xmlns="http://www.w3.org/2000/svg">
<g clip-path="url(#clip0_5_126)">
<path d="M23.1194 28.222L23.8444 27.7976C23.8444 28.0414 23.7341 28.2753 23.5377 28.4478C23.3413 28.6202 23.075 28.7171 22.7972 28.7171H1.53056C1.25282 28.7171 0.986454 28.6202 0.790062 28.4478C0.593669 28.2753 0.483337 28.0414 0.483337 27.7976V1.48537C0.483337 1.2415 0.593669 1.00762 0.790062 0.835176C0.986454 0.662734 1.25282 0.565857 1.53056 0.565857H1.04723L2.85973 25.711C2.85973 25.9548 2.97006 26.1887 3.16645 26.3612C3.36284 26.5336 3.62921 26.6305 3.90695 26.6305L23.1194 28.222Z" fill="#C5C6EF"/>
<path d="M12.1639 5.12239H5.33923V6.11476H12.1639V5.12239Z" fill="#385868"/>
<path d="M12.1647 10.3891H5.33923V11.3814H12.1647V10.3891Z" fill="#385868"/>
<path d="M16.3004 7.66519H5.33923V8.65756H16.3004V7.66519Z" fill="#385868"/>
<path d="M12.1639 16.7931H5.33923V17.7855H12.1639V16.7931Z" fill="#385868"/>
<path d="M12.1647 22.0598H5.33923V23.0522H12.1647V22.0598Z" fill="#385868"/>
<path d="M16.3004 19.3359H5.33923V20.3283H16.3004V19.3359Z" fill="#385868"/>
<path d="M22.7972 29H1.53056C1.12463 29 0.735324 28.8584 0.448289 28.6064C0.161254 28.3543 0 28.0125 0 27.6561L0 1.3439C0 0.987477 0.161254 0.645651 0.448289 0.39362C0.735324 0.141589 1.12463 0 1.53056 0L22.7972 0C23.2032 0 23.5925 0.141589 23.8795 0.39362C24.1665 0.645651 24.3278 0.987477 24.3278 1.3439V27.6561C24.3278 28.0125 24.1665 28.3543 23.8795 28.6064C23.5925 28.8584 23.2032 29 22.7972 29ZM1.53056 0.848781C1.381 0.848781 1.23758 0.900945 1.13183 0.993798C1.02608 1.08665 0.966667 1.21259 0.966667 1.3439V27.6561C0.966667 27.7874 1.02608 27.9133 1.13183 28.0062C1.23758 28.0991 1.381 28.1512 1.53056 28.1512H22.7972C22.9468 28.1512 23.0902 28.0991 23.196 28.0062C23.3017 27.9133 23.3611 27.7874 23.3611 27.6561V1.3439C23.3611 1.21259 23.3017 1.08665 23.196 0.993798C23.0902 0.900945 22.9468 0.848781 22.7972 0.848781H1.53056Z" fill="#426572"/>
<path d="M23.8042 20.3707C26.4068 20.3707 28.5167 18.5182 28.5167 16.2329C28.5167 13.9477 26.4068 12.0951 23.8042 12.0951C21.2015 12.0951 19.0917 13.9477 19.0917 16.2329C19.0917 18.5182 21.2015 20.3707 23.8042 20.3707Z" fill="#6AE184"/>
<path d="M27.9528 16.0207C27.9526 16.6029 27.8125 17.1784 27.5417 17.7098C27.271 18.2411 26.8756 18.7164 26.3815 19.1044C25.8873 19.4925 25.3055 19.7847 24.674 19.962C24.0425 20.1392 23.3756 20.1975 22.7167 20.1331C23.869 20.0203 24.9335 19.5385 25.7066 18.7798C26.4797 18.0211 26.9072 17.0388 26.9072 16.0207C26.9072 15.0027 26.4797 14.0204 25.7066 13.2617C24.9335 12.503 23.869 12.0212 22.7167 11.9084C23.3756 11.8439 24.0425 11.9022 24.674 12.0795C25.3055 12.2567 25.8873 12.5489 26.3815 12.937C26.8756 13.3251 27.271 13.8003 27.5417 14.3317C27.8125 14.8631 27.9526 15.4386 27.9528 16.0207Z" fill="#A8FF8C"/>
<path d="M24.65 20.1246C23.985 20.2014 23.3089 20.1527 22.667 19.9817C22.0251 19.8107 21.4322 19.5214 20.9279 19.133C20.4236 18.7447 20.0195 18.2663 19.7427 17.7298C19.4659 17.1933 19.3227 16.6111 19.3227 16.0221C19.3227 15.4332 19.4659 14.851 19.7427 14.3145C20.0195 13.778 20.4236 13.2996 20.9279 12.9113C21.4322 12.5229 22.0251 12.2336 22.667 12.0626C23.3089 11.8916 23.985 11.8429 24.65 11.9197C23.5164 12.0507 22.4758 12.539 21.7219 13.2938C20.968 14.0486 20.5523 15.0182 20.5523 16.0221C20.5523 17.0261 20.968 17.9957 21.7219 18.7505C22.4758 19.5052 23.5164 19.9936 24.65 20.1246Z" fill="#389D9C"/>
<path d="M23.8042 20.5829C22.7765 20.5829 21.772 20.3154 20.9175 19.8141C20.0631 19.3127 19.3971 18.6002 19.0038 17.7666C18.6106 16.933 18.5077 16.0157 18.7082 15.1307C18.9087 14.2457 19.4035 13.4328 20.1302 12.7948C20.8568 12.1567 21.7826 11.7222 22.7905 11.5462C23.7984 11.3702 24.8431 11.4605 25.7925 11.8058C26.7419 12.1511 27.5534 12.7359 28.1244 13.4861C28.6953 14.2364 29 15.1184 29 16.0207C28.9985 17.2303 28.4506 18.3899 27.4765 19.2452C26.5024 20.1005 25.1817 20.5816 23.8042 20.5829ZM23.8042 12.3073C22.9677 12.3073 22.1501 12.5251 21.4546 12.9331C20.7591 13.3412 20.217 13.9211 19.8969 14.5997C19.5768 15.2782 19.4931 16.0248 19.6563 16.7452C19.8195 17.4655 20.2222 18.1272 20.8137 18.6465C21.4052 19.1658 22.1587 19.5195 22.9791 19.6628C23.7995 19.8061 24.6498 19.7325 25.4226 19.4515C26.1954 19.1704 26.8559 18.6945 27.3206 18.0838C27.7853 17.4731 28.0333 16.7552 28.0333 16.0207C28.0321 15.0362 27.5861 14.0923 26.7932 13.3962C26.0004 12.7 24.9254 12.3084 23.8042 12.3073Z" fill="#426572"/>
<path d="M22.9285 14.9244V17.5945C22.9285 18.2771 24.1369 18.2785 24.1369 17.5945V14.9244C24.1369 14.2418 22.9285 14.2404 22.9285 14.9244Z" fill="#426572"/>
<path d="M25.0528 15.7293H22.0118C21.2345 15.7293 21.2328 16.7903 22.0118 16.7903H25.0528C25.8302 16.7903 25.8318 15.7293 25.0528 15.7293Z" fill="#426572"/>
</g>
<defs>
<clipPath id="clip0_5_126">
<rect width="29" height="29" fill="white"/>
</clipPath>
</defs>
</svg>
