<svg width="29" height="29" viewBox="0 0 29 29" fill="none" xmlns="http://www.w3.org/2000/svg">
<g clip-path="url(#clip0_16_73)">
<path d="M8.25098 28.6772C8.03682 28.6772 7.82012 28.6125 7.63305 28.4786C7.15439 28.137 7.04413 27.4723 7.38607 26.9942L11.5662 21.1429C11.9091 20.6643 12.5739 20.5546 13.0513 20.8959C13.5293 21.2376 13.6408 21.9023 13.2983 22.3804L9.11811 28.2317C8.91001 28.5223 8.58272 28.6772 8.25098 28.6772Z" fill="#45596B"/>
<path d="M20.7143 28.6772C20.3819 28.6772 20.0553 28.5223 19.8472 28.2317L15.6664 22.3803C15.3254 21.9023 15.4353 21.2376 15.914 20.8959C16.392 20.5549 17.0568 20.6649 17.3984 21.1429L21.5792 26.9942C21.9214 27.4722 21.8102 28.137 21.3322 28.4786C21.1451 28.6125 20.9284 28.6772 20.7143 28.6772Z" fill="#45596B"/>
<path d="M26.3266 0.538574H2.63805C2.19731 0.538574 1.83943 0.895816 1.83943 1.33655V21.7621C1.83943 22.2035 2.19731 22.5607 2.63805 22.5607H23.7873C25.6271 22.5607 27.1255 21.0639 27.1255 19.2232V1.33655C27.1252 0.896135 26.7673 0.538574 26.3266 0.538574Z" fill="#647F94"/>
<path d="M14.2208 9.52538C13.7801 9.52538 13.4222 9.88262 13.4222 10.3234V17.7875C13.4222 18.2289 13.7801 18.5861 14.2208 18.5861C14.6612 18.5861 15.0185 18.2289 15.0185 17.7875V10.3234C15.0185 9.88262 14.6612 9.52538 14.2208 9.52538Z" fill="#95AEC2"/>
<path d="M9.14806 12.3616C8.70732 12.3616 8.34944 12.7189 8.34944 13.1596V17.7878C8.34944 18.2286 8.70732 18.5858 9.14806 18.5858C9.58879 18.5858 9.94667 18.2286 9.94667 17.7878V13.1596C9.94635 12.7189 9.58847 12.3616 9.14806 12.3616Z" fill="#95AEC2"/>
<path d="M19.9632 11.7641C19.5224 11.7641 19.1652 12.1214 19.1652 12.5627V17.7875C19.1652 18.2289 19.5224 18.5861 19.9632 18.5861C20.4039 18.5861 20.7618 18.2289 20.7618 17.7875V12.5627C20.7615 12.1214 20.4036 11.7641 19.9632 11.7641Z" fill="#95AEC2"/>
<path d="M23.3389 5.28533C23.0295 4.96983 22.5241 4.9641 22.2105 5.2729L18.967 8.44601L12.8464 5.1416C12.5669 4.99023 12.224 5.01891 11.9732 5.21617L5.70343 10.1446C5.35671 10.4167 5.29712 10.919 5.56895 11.2657C5.72574 11.4655 5.96093 11.5707 6.19707 11.5707C6.36948 11.5707 6.54443 11.5146 6.68943 11.3995L12.5484 6.79556L18.7263 10.1306C19.0339 10.2963 19.4134 10.2434 19.6636 9.99862L23.3265 6.41473C23.6417 6.10561 23.6471 5.60018 23.3389 5.28533Z" fill="#6EC4A7"/>
<path d="M27.9095 2.40095H1.10073C0.512441 2.40095 0.0363312 1.92484 0.0363312 1.33655C0.0363312 0.748903 0.512441 0.272156 1.10073 0.272156H27.9098C28.4974 0.272156 28.9748 0.748903 28.9748 1.33655C28.9745 1.92484 28.4971 2.40095 27.9095 2.40095Z" fill="#45596B"/>
</g>
<defs>
<clipPath id="clip0_16_73">
<rect width="29" height="29" fill="white"/>
</clipPath>
</defs>
</svg>
